<mxfile host="65bd71144e">
    <diagram id="YfzR0-cyZ97g2qhAvFvZ" name="ページ1">
        <mxGraphModel dx="855" dy="465" grid="1" gridSize="10" guides="1" tooltips="1" connect="1" arrows="1" fold="1" page="1" pageScale="1" pageWidth="827" pageHeight="1169" math="0" shadow="0">
            <root>
                <mxCell id="0"/>
                <mxCell id="1" parent="0"/>
                <mxCell id="2" value="&lt;b&gt;プロトタイプ開発&lt;/b&gt;" style="shape=flexArrow;endArrow=classic;html=1;width=74;endSize=16.39;fillColor=#60a917;strokeColor=#2D7600;labelBackgroundColor=none;align=center;endWidth=41;" edge="1" parent="1">
                    <mxGeometry x="-0.1765" width="50" height="50" relative="1" as="geometry">
                        <mxPoint x="110" y="181.17647058823536" as="sourcePoint"/>
                        <mxPoint x="280" y="181.17647058823536" as="targetPoint"/>
                        <Array as="points">
                            <mxPoint x="230" y="181.17647058823536"/>
                        </Array>
                        <mxPoint as="offset"/>
                    </mxGeometry>
                </mxCell>
                <mxCell id="7" value="&lt;b&gt;フィードバック&lt;/b&gt;" style="rounded=1;whiteSpace=wrap;html=1;flipV=1;fillColor=#008a00;fontColor=#ffffff;strokeColor=#005700;" vertex="1" parent="1">
                    <mxGeometry x="280" y="90" width="60" height="180" as="geometry"/>
                </mxCell>
                <mxCell id="8" value="&lt;b&gt;製品版開発&lt;/b&gt;" style="shape=flexArrow;endArrow=classic;html=1;width=74;endSize=16.39;fillColor=#60a917;strokeColor=#2D7600;labelBackgroundColor=none;align=center;endWidth=41;" edge="1" parent="1">
                    <mxGeometry x="-0.1765" width="50" height="50" relative="1" as="geometry">
                        <mxPoint x="350" y="179.41647058823537" as="sourcePoint"/>
                        <mxPoint x="520" y="179.41647058823537" as="targetPoint"/>
                        <Array as="points">
                            <mxPoint x="470" y="179.41647058823537"/>
                        </Array>
                        <mxPoint as="offset"/>
                    </mxGeometry>
                </mxCell>
            </root>
        </mxGraphModel>
    </diagram>
</mxfile>